<svg width="18" height="18" viewBox="0 0 18 18" fill="none" xmlns="http://www.w3.org/2000/svg">
<path d="M2.75 0C1.24011 0 0 1.24011 0 2.75V15.25C0 16.7599 1.24011 18 2.75 18H15.25C16.7599 18 18 16.7599 18 15.25V2.75C18 1.24011 16.7599 0 15.25 0H2.75ZM2.75 1.5H15.25C15.9491 1.5 16.5 2.05089 16.5 2.75V15.25C16.5 15.9491 15.9491 16.5 15.25 16.5H2.75C2.05089 16.5 1.5 15.9491 1.5 15.25V2.75C1.5 2.05089 2.05089 1.5 2.75 1.5ZM8.25 3C8.05109 3.00002 7.86034 3.07904 7.71969 3.21969C7.57904 3.36034 7.50002 3.55109 7.5 3.75V6.25C7.50002 6.44891 7.57904 6.63966 7.71969 6.78031C7.86034 6.92096 8.05109 6.99998 8.25 7H14.25C14.4489 6.99998 14.6397 6.92096 14.7803 6.78031C14.921 6.63966 15 6.44891 15 6.25V3.75C15 3.55109 14.921 3.36034 14.7803 3.21969C14.6397 3.07904 14.4489 3.00002 14.25 3H8.25ZM3.75 4C3.65062 3.99859 3.55194 4.01696 3.45972 4.05402C3.36749 4.09108 3.28355 4.1461 3.21277 4.21588C3.142 4.28566 3.08579 4.36882 3.04743 4.46051C3.00907 4.5522 2.98932 4.65061 2.98932 4.75C2.98932 4.84939 3.00907 4.9478 3.04743 5.03949C3.08579 5.13118 3.142 5.21434 3.21277 5.28412C3.28355 5.3539 3.36749 5.40892 3.45972 5.44598C3.55194 5.48304 3.65062 5.50141 3.75 5.5H5.25C5.34938 5.50141 5.44806 5.48304 5.54028 5.44598C5.63251 5.40892 5.71645 5.3539 5.78723 5.28412C5.858 5.21434 5.91421 5.13118 5.95257 5.03949C5.99093 4.9478 6.01068 4.84939 6.01068 4.75C6.01068 4.65061 5.99093 4.5522 5.95257 4.46051C5.91421 4.36882 5.858 4.28566 5.78723 4.21588C5.71645 4.1461 5.63251 4.09108 5.54028 4.05402C5.44806 4.01696 5.34938 3.99859 5.25 4H3.75ZM9 4.5H13.5V5.5H9V4.5ZM8.25 8C8.05109 8.00002 7.86034 8.07904 7.71969 8.21969C7.57904 8.36034 7.50002 8.55109 7.5 8.75V11.25C7.50002 11.4489 7.57904 11.6397 7.71969 11.7803C7.86034 11.921 8.05109 12 8.25 12H14.25C14.4489 12 14.6397 11.921 14.7803 11.7803C14.921 11.6397 15 11.4489 15 11.25V8.75C15 8.55109 14.921 8.36034 14.7803 8.21969C14.6397 8.07904 14.4489 8.00002 14.25 8H8.25ZM3.75 9C3.65062 8.99859 3.55194 9.01696 3.45972 9.05402C3.36749 9.09108 3.28355 9.1461 3.21277 9.21588C3.142 9.28566 3.08579 9.36882 3.04743 9.46051C3.00907 9.5522 2.98932 9.65061 2.98932 9.75C2.98932 9.84939 3.00907 9.9478 3.04743 10.0395C3.08579 10.1312 3.142 10.2143 3.21277 10.2841C3.28355 10.3539 3.36749 10.4089 3.45972 10.446C3.55194 10.483 3.65062 10.5014 3.75 10.5H5.25C5.34938 10.5014 5.44806 10.483 5.54028 10.446C5.63251 10.4089 5.71645 10.3539 5.78723 10.2841C5.858 10.2143 5.91421 10.1312 5.95257 10.0395C5.99093 9.9478 6.01068 9.84939 6.01068 9.75C6.01068 9.65061 5.99093 9.5522 5.95257 9.46051C5.91421 9.36882 5.858 9.28566 5.78723 9.21588C5.71645 9.1461 5.63251 9.09108 5.54028 9.05402C5.44806 9.01696 5.34938 8.99859 5.25 9H3.75ZM9 9.5H13.5V10.5H9V9.5ZM6.25 13.5C6.15062 13.4986 6.05194 13.517 5.95972 13.554C5.86749 13.5911 5.78355 13.6461 5.71277 13.7159C5.642 13.7857 5.58579 13.8688 5.54743 13.9605C5.50907 14.0522 5.48932 14.1506 5.48932 14.25C5.48932 14.3494 5.50907 14.4478 5.54743 14.5395C5.58579 14.6312 5.642 14.7143 5.71277 14.7841C5.78355 14.8539 5.86749 14.9089 5.95972 14.946C6.05194 14.983 6.15062 15.0014 6.25 15H14.25C14.3494 15.0014 14.4481 14.983 14.5403 14.946C14.6325 14.9089 14.7164 14.8539 14.7872 14.7841C14.858 14.7143 14.9142 14.6312 14.9526 14.5395C14.9909 14.4478 15.0107 14.3494 15.0107 14.25C15.0107 14.1506 14.9909 14.0522 14.9526 13.9605C14.9142 13.8688 14.858 13.7857 14.7872 13.7159C14.7164 13.6461 14.6325 13.5911 14.5403 13.554C14.4481 13.517 14.3494 13.4986 14.25 13.5H6.25Z" fill="#737373"/>
</svg>
