<svg width="100" height="30" viewBox="0 0 100 30" fill="none" xmlns="http://www.w3.org/2000/svg">
<path d="M15 2.5C8.10768 2.5 2.5 8.10768 2.5 15C2.5 21.8923 8.10768 27.5 15 27.5C18.9681 27.5 22.5098 25.6394 24.7974 22.7502C24.8744 22.6538 24.9316 22.5431 24.9658 22.4245C24.9999 22.3059 25.0103 22.1817 24.9963 22.059C24.9824 21.9364 24.9443 21.8177 24.8844 21.7098C24.8244 21.6019 24.7438 21.5069 24.647 21.4302C24.5503 21.3536 24.4394 21.2968 24.3206 21.2631C24.2019 21.2294 24.0776 21.2195 23.9551 21.234C23.8325 21.2484 23.7139 21.2869 23.6063 21.3473C23.4986 21.4076 23.4039 21.4887 23.3276 21.5857C21.3802 24.0452 18.3832 25.625 15 25.625C9.12107 25.625 4.375 20.8789 4.375 15C4.375 9.12107 9.12107 4.375 15 4.375C18.3832 4.375 21.3802 5.95476 23.3276 8.41431C23.4039 8.51135 23.4986 8.59238 23.6063 8.65274C23.7139 8.7131 23.8325 8.7516 23.9551 8.76605C24.0776 8.78049 24.2019 8.77058 24.3206 8.7369C24.4394 8.70322 24.5503 8.64642 24.647 8.56976C24.7438 8.4931 24.8244 8.3981 24.8844 8.2902C24.9443 8.18229 24.9824 8.06362 24.9963 7.94098C25.0103 7.81833 24.9999 7.69414 24.9658 7.57553C24.9316 7.45691 24.8744 7.3462 24.7974 7.24976C22.5098 4.36056 18.9681 2.5 15 2.5ZM22.8027 10.3027C22.6162 10.3028 22.4338 10.3585 22.2791 10.4627C22.1244 10.567 22.0042 10.715 21.9341 10.8879C21.864 11.0608 21.847 11.2507 21.8854 11.4333C21.9238 11.6159 22.0158 11.7828 22.1497 11.9128L24.2981 14.0613L11.5637 14.0503C11.4395 14.0484 11.3161 14.0712 11.2008 14.1174C11.0855 14.1635 10.9805 14.2322 10.8919 14.3193C10.8033 14.4064 10.7329 14.5103 10.6848 14.6248C10.6367 14.7394 10.6119 14.8623 10.6117 14.9866C10.6115 15.1108 10.6361 15.2338 10.6839 15.3485C10.7317 15.4632 10.8018 15.5672 10.8901 15.6545C10.9785 15.7419 11.0833 15.8108 11.1985 15.8573C11.3137 15.9038 11.4371 15.9269 11.5613 15.9253L24.3005 15.9363L22.1497 18.0872C22.0597 18.1735 21.9879 18.277 21.9384 18.3915C21.8889 18.506 21.8627 18.6292 21.8615 18.7539C21.8602 18.8787 21.8838 19.0024 21.931 19.1179C21.9781 19.2334 22.0478 19.3383 22.136 19.4265C22.2242 19.5147 22.3291 19.5844 22.4446 19.6315C22.5601 19.6787 22.6838 19.7023 22.8085 19.701C22.9333 19.6998 23.0565 19.6736 23.171 19.6241C23.2855 19.5746 23.389 19.5028 23.4753 19.4128L27.2253 15.6628C27.4011 15.487 27.4998 15.2486 27.4998 15C27.4998 14.7514 27.4011 14.513 27.2253 14.3372L23.4753 10.5872C23.388 10.4972 23.2834 10.4256 23.1679 10.3768C23.0523 10.3279 22.9282 10.3027 22.8027 10.3027Z" fill="#256BA2"/>
<path d="M42.4039 20V8.72H44.4519V18.256H49.8599V20H42.4039ZM55.9361 20.16C55.1255 20.16 54.4215 19.9947 53.8241 19.664C53.2268 19.3333 52.7628 18.864 52.4321 18.256C52.1015 17.6373 51.9361 16.912 51.9361 16.08C51.9361 15.248 52.1015 14.528 52.4321 13.92C52.7628 13.312 53.2268 12.8427 53.8241 12.512C54.4215 12.1813 55.1255 12.016 55.9361 12.016C56.7468 12.016 57.4508 12.1813 58.0481 12.512C58.6455 12.8427 59.1095 13.312 59.4401 13.92C59.7708 14.528 59.9361 15.248 59.9361 16.08C59.9361 16.912 59.7708 17.6373 59.4401 18.256C59.1095 18.864 58.6455 19.3333 58.0481 19.664C57.4508 19.9947 56.7468 20.16 55.9361 20.16ZM55.9361 18.64C56.5335 18.64 57.0135 18.4267 57.3761 18C57.7388 17.5627 57.9201 16.9227 57.9201 16.08C57.9201 15.2267 57.7388 14.592 57.3761 14.176C57.0135 13.7493 56.5335 13.536 55.9361 13.536C55.3388 13.536 54.8588 13.7493 54.4961 14.176C54.1335 14.592 53.9521 15.2267 53.9521 16.08C53.9521 16.9227 54.1335 17.5627 54.4961 18C54.8588 18.4267 55.3388 18.64 55.9361 18.64ZM66.4849 23.04C65.7595 23.04 65.0769 22.9547 64.4369 22.784C63.8075 22.624 63.2529 22.3733 62.7729 22.032L63.3489 20.64C63.7969 20.9387 64.2769 21.1573 64.7889 21.296C65.3009 21.4453 65.8129 21.52 66.3249 21.52C67.7542 21.52 68.4689 20.832 68.4689 19.456V18.384C68.2449 18.8213 67.8982 19.168 67.4289 19.424C66.9702 19.68 66.4582 19.808 65.8929 19.808C65.1889 19.808 64.5755 19.648 64.0529 19.328C63.5302 18.9973 63.1249 18.5387 62.8369 17.952C62.5489 17.3653 62.4049 16.6827 62.4049 15.904C62.4049 15.1253 62.5489 14.448 62.8369 13.872C63.1249 13.2853 63.5302 12.832 64.0529 12.512C64.5755 12.1813 65.1889 12.016 65.8929 12.016C66.4795 12.016 67.0022 12.1493 67.4609 12.416C67.9195 12.672 68.2555 13.0187 68.4689 13.456V12.176H70.4209V19.216C70.4209 20.4853 70.0849 21.44 69.4129 22.08C68.7409 22.72 67.7649 23.04 66.4849 23.04ZM66.4369 18.288C67.0555 18.288 67.5462 18.0747 67.9089 17.648C68.2715 17.2213 68.4529 16.64 68.4529 15.904C68.4529 15.168 68.2715 14.592 67.9089 14.176C67.5462 13.7493 67.0555 13.536 66.4369 13.536C65.8182 13.536 65.3275 13.7493 64.9649 14.176C64.6022 14.592 64.4209 15.168 64.4209 15.904C64.4209 16.64 64.6022 17.2213 64.9649 17.648C65.3275 18.0747 65.8182 18.288 66.4369 18.288ZM77.3111 20.16C76.5005 20.16 75.7965 19.9947 75.1991 19.664C74.6018 19.3333 74.1378 18.864 73.8071 18.256C73.4765 17.6373 73.3111 16.912 73.3111 16.08C73.3111 15.248 73.4765 14.528 73.8071 13.92C74.1378 13.312 74.6018 12.8427 75.1991 12.512C75.7965 12.1813 76.5005 12.016 77.3111 12.016C78.1218 12.016 78.8258 12.1813 79.4231 12.512C80.0205 12.8427 80.4845 13.312 80.8151 13.92C81.1458 14.528 81.3111 15.248 81.3111 16.08C81.3111 16.912 81.1458 17.6373 80.8151 18.256C80.4845 18.864 80.0205 19.3333 79.4231 19.664C78.8258 19.9947 78.1218 20.16 77.3111 20.16ZM77.3111 18.64C77.9085 18.64 78.3885 18.4267 78.7511 18C79.1138 17.5627 79.2951 16.9227 79.2951 16.08C79.2951 15.2267 79.1138 14.592 78.7511 14.176C78.3885 13.7493 77.9085 13.536 77.3111 13.536C76.7138 13.536 76.2338 13.7493 75.8711 14.176C75.5085 14.592 75.3271 15.2267 75.3271 16.08C75.3271 16.9227 75.5085 17.5627 75.8711 18C76.2338 18.4267 76.7138 18.64 77.3111 18.64ZM87.0439 20.16C85.1239 20.16 84.1639 19.0827 84.1639 16.928V12.176H86.1639V16.96C86.1639 17.5147 86.2759 17.9253 86.4999 18.192C86.7239 18.4587 87.0812 18.592 87.5719 18.592C88.1052 18.592 88.5425 18.4107 88.8839 18.048C89.2252 17.6747 89.3959 17.184 89.3959 16.576V12.176H91.3959V20H89.4439V18.832C88.9212 19.7173 88.1212 20.16 87.0439 20.16ZM98.3115 20.16C96.2422 20.16 95.2075 19.136 95.2075 17.088V13.68H93.7035V12.176H95.2075V9.84H97.2075V12.176H99.5755V13.68H97.2075V16.976C97.2075 17.488 97.3195 17.872 97.5435 18.128C97.7675 18.384 98.1302 18.512 98.6315 18.512C98.7808 18.512 98.9355 18.496 99.0955 18.464C99.2555 18.4213 99.4208 18.3787 99.5915 18.336L99.8955 19.808C99.7035 19.9147 99.4582 20 99.1595 20.064C98.8715 20.128 98.5888 20.16 98.3115 20.16Z" fill="black"/>
</svg>
